<?xml version="1.0" encoding="UTF-8"?>
<svg width="1024px" height="1024px" viewBox="0 0 1024 1024" version="1.1" xmlns="http://www.w3.org/2000/svg" xmlns:xlink="http://www.w3.org/1999/xlink">
    <title>Group</title>
    <defs>
        <linearGradient x1="19.2029476%" y1="20.4664215%" x2="87.004137%" y2="85.4049206%" id="linearGradient-1">
            <stop stop-color="#1E3C72" offset="0%"></stop>
            <stop stop-color="#2A5298" offset="99.9220529%"></stop>
            <stop stop-color="#2A5298" offset="100%"></stop>
        </linearGradient>
    </defs>
    <g id="Page-1" stroke="none" stroke-width="1" fill="none" fill-rule="evenodd">
        <g id="Group">
            <rect id="Rectangle" fill="url(#linearGradient-1)" x="0" y="0" width="1024" height="1024"></rect>
            <path d="M245.84,641.6 C278.6,641.6 307.76,629 329.72,608.12 L318.56,596.6 C299.48,614.6 274.28,625.4 245.84,625.4 C185.72,625.4 140.72,575.72 140.72,514.52 C140.72,452.96 185.72,403.28 245.84,403.28 C274.28,403.28 299.48,414.44 318.56,432.08 L329.72,420.56 C307.76,400.04 278.6,387.08 245.84,387.08 C176.72,387.08 124.52,443.96 124.52,514.52 C124.52,584.72 176.72,641.6 245.84,641.6 Z M379.76,420.92 C387.68,420.92 393.8,415.16 393.8,407.6 C393.8,400.04 387.68,394.28 379.76,394.28 C371.84,394.28 365.36,400.04 365.36,407.6 C365.36,415.16 371.84,420.92 379.76,420.92 Z M388.04,638 L388.04,469.88 L371.84,469.88 L371.84,638 L388.04,638 Z M521.6,641.6 C553.64,641.6 581.36,625.76 595.76,598.76 L580.28,593.36 C568.4,613.16 546.8,625.4 521.6,625.4 C485.6,625.4 456.44,600.2 453.56,560.96 L603.68,560.96 C604.04,558.44 604.04,555.92 604.04,553.4 C604.04,500.48 569.48,466.28 521.6,466.28 C474.44,466.28 437,500.48 437,553.4 C437,606.68 474.44,641.6 521.6,641.6 Z M587.48,545.84 L453.56,545.84 C456.8,506.96 485.6,482.48 521.6,482.48 C557.96,482.48 584.24,506.96 587.48,545.84 Z M666.32,638 L666.32,374.12 L650.12,374.12 L650.12,638 L666.32,638 Z M801.68,641.6 C831.56,641.6 859.28,626.12 872.96,601.64 L872.96,638 L889.52,638 L889.52,469.88 L872.96,469.88 L872.96,505.88 C859.28,481.04 831.56,466.28 801.68,466.28 C753.8,466.28 714.92,503.36 714.92,553.76 C714.92,604.16 753.8,641.6 801.68,641.6 Z M801.68,625.04 C762.8,625.04 731.48,594.08 731.48,553.76 C731.48,513.08 762.8,482.84 801.68,482.84 C840.56,482.84 872.96,512.72 872.96,555.56 C872.24,596.6 840.2,625.04 801.68,625.04 Z" id="Ciela" fill="#FFFFFF" fill-rule="nonzero"></path>
        </g>
    </g>
</svg>